<?xml version="1.0" standalone="no"?>
<!DOCTYPE svg PUBLIC "-//W3C//DTD SVG 20010904//EN"
 "http://www.w3.org/TR/2001/REC-SVG-20010904/DTD/svg10.dtd">
<svg version="1.0" xmlns="http://www.w3.org/2000/svg"
 width="824.000000pt" height="824.000000pt" viewBox="0 0 824.000000 824.000000"
 preserveAspectRatio="xMidYMid meet">
<metadata>
Created by potrace 1.14, written by Peter Selinger 2001-2017
</metadata>
<g transform="translate(0.000000,824.000000) scale(0.100000,-0.100000)"
fill="#000000" stroke="none">
<path d="M3905 8175 c-121 -97 -345 -310 -403 -385 -23 -29 -19 -40 37 -109
91 -112 305 -333 374 -385 33 -25 40 -27 65 -17 15 6 40 22 56 36 15 13 46 39
69 57 73 58 223 203 320 308 38 41 40 59 10 105 -50 76 -262 303 -377 403 -60
51 -72 50 -151 -13z"/>
<path d="M4983 7775 c-131 -99 -406 -366 -418 -405 -5 -15 3 -34 30 -68 129
-167 396 -432 436 -432 20 0 99 58 198 144 93 83 290 286 296 307 13 40 -65
139 -265 339 -122 122 -180 170 -202 170 -2 0 -35 -25 -75 -55z"/>
<path d="M4100 6989 c-131 -95 -440 -398 -440 -432 0 -31 155 -213 305 -358
110 -106 153 -139 173 -132 21 8 123 85 182 138 100 89 298 294 305 314 11 35
-47 110 -230 300 -119 124 -209 201 -234 201 -10 0 -37 -14 -61 -31z"/>
<path d="M5169 5733 c-19 -15 -36 -30 -39 -33 -4 -4 -123 -101 -174 -140 -10
-8 -38 -31 -61 -50 -23 -19 -61 -51 -85 -69 -23 -19 -48 -41 -56 -48 -7 -7
-16 -13 -20 -13 -3 0 -14 -8 -23 -17 -9 -10 -36 -33 -61 -52 -25 -19 -54 -43
-65 -53 -11 -10 -30 -26 -41 -36 -65 -52 -110 -90 -135 -112 -16 -14 -50 -43
-76 -65 -26 -22 -54 -47 -63 -55 -47 -45 -120 -100 -131 -100 -13 0 -25 9 -91
65 -12 11 -50 42 -83 68 -33 27 -62 52 -65 55 -3 4 -27 25 -55 47 -27 22 -56
45 -63 52 -7 7 -34 29 -60 50 -26 21 -49 40 -52 43 -3 3 -32 28 -65 55 -33 28
-62 52 -65 55 -3 3 -27 24 -55 45 -27 22 -54 45 -60 51 -5 6 -35 30 -65 55
-30 24 -57 46 -60 50 -3 3 -48 38 -100 77 -52 40 -100 76 -106 81 -6 5 -16 6
-21 3 -7 -5 -10 -295 -10 -897 1 -489 -2 -973 -6 -1075 -4 -102 -10 -236 -12
-297 -3 -62 -1 -123 4 -135 8 -20 67 -82 205 -212 45 -42 50 -30 -70 -156 -73
-76 -148 -157 -230 -246 -16 -17 -76 -82 -134 -144 -128 -137 -128 -138 -215
-235 -38 -43 -85 -94 -104 -114 -18 -20 -50 -56 -70 -80 -20 -24 -47 -56 -61
-70 -14 -14 -52 -57 -85 -96 -33 -38 -70 -80 -82 -93 -13 -12 -23 -25 -23 -27
0 -2 -12 -17 -27 -33 -16 -17 -47 -52 -70 -78 -110 -130 -248 -288 -273 -314
-8 -9 -31 -34 -50 -57 -106 -124 -138 -159 -163 -185 l-27 -29 0 -247 0 -247
68 -71 c37 -39 94 -102 127 -140 32 -38 103 -114 156 -169 54 -55 115 -119
136 -141 21 -23 61 -67 90 -97 l52 -56 1963 1 1963 2 20 21 c18 18 162 176
245 269 19 21 46 51 60 66 24 26 119 131 194 214 l36 40 0 311 0 312 -27 29
c-16 16 -55 61 -88 99 -33 38 -80 92 -105 120 -25 28 -72 82 -105 120 -33 37
-65 73 -70 79 -6 6 -59 67 -119 136 -60 69 -116 132 -125 141 -9 9 -36 41 -61
70 -25 29 -54 62 -65 75 -11 12 -47 53 -80 90 -33 37 -70 79 -82 92 -12 13
-49 54 -83 92 -34 38 -71 80 -83 93 -12 13 -56 61 -97 107 -41 45 -86 95 -100
110 -14 15 -56 62 -95 105 -38 43 -75 83 -80 89 -6 6 -41 46 -78 90 l-67 79
43 37 c23 21 67 62 97 91 l56 54 -3 95 c-3 127 -13 919 -17 1403 -2 213 -6
390 -9 393 -2 3 -1 21 3 40 4 18 5 34 1 34 -3 0 -6 55 -7 123 -2 199 -16 423
-28 435 -2 1 -19 -10 -37 -25z m-1012 -3610 c23 -21 76 -69 119 -108 107 -97
507 -498 575 -576 77 -88 81 -97 61 -139 -26 -55 -54 -79 -97 -85 -22 -3 -137
-7 -256 -9 -119 -2 -221 -6 -227 -10 -6 -3 -13 -2 -16 3 -3 4 -24 5 -46 1 -22
-4 -40 -4 -40 1 0 5 -10 5 -22 1 -13 -5 -135 -7 -273 -7 -213 2 -305 5 -475
19 -38 3 -88 36 -101 67 -24 59 25 133 252 380 152 166 483 499 496 499 5 0
28 -17 50 -37z"/>
</g>
</svg>
